<?xml version="1.0" encoding="UTF-8" standalone="no"?><!DOCTYPE svg PUBLIC "-//W3C//DTD SVG 1.1//EN" "http://www.w3.org/Graphics/SVG/1.1/DTD/svg11.dtd"><svg width="100%" height="100%" viewBox="0 0 232 164" version="1.1" xmlns="http://www.w3.org/2000/svg" xmlns:xlink="http://www.w3.org/1999/xlink" xml:space="preserve" xmlns:serif="http://www.serif.com/" style="fill-rule:evenodd;clip-rule:evenodd;stroke-linejoin:round;stroke-miterlimit:2;"><path d="M142.82,20.684l0,29.969c0,11.452 -8.322,20.826 -18.571,20.922l-33.461,0.313c-10.303,0.096 -18.669,-9.171 -18.669,-20.683l0,-29.969c0,-11.452 8.322,-20.826 18.571,-20.922l33.461,-0.313c10.303,-0.096 18.669,9.171 18.669,20.683Zm-10.417,-0.011c0,-5.028 -3.654,-9.077 -8.155,-9.035l-33.461,0.313c-4.554,0.043 -8.252,4.208 -8.252,9.297l0,29.969c0,5.028 3.654,9.077 8.155,9.035l33.461,-0.313c4.554,-0.043 8.252,-4.208 8.252,-9.297l0,-29.969Z" style="fill:#a46644;"/><path d="M73.496,19.862l0,14.217c0,3.923 -3.185,7.109 -7.109,7.109l-14.371,0c-3.923,0 -7.109,-3.185 -7.109,-7.109l0,-14.217c0,-3.923 3.185,-7.109 7.109,-7.109l14.371,0c3.923,0 7.109,3.185 7.109,7.109Z" style="fill:#d07400;"/><path d="M164.99,19.862l0,14.217c0,3.923 -3.185,7.109 -7.109,7.109l-14.371,0c-3.923,0 -7.109,-3.185 -7.109,-7.109l0,-14.217c0,-3.923 3.185,-7.109 7.109,-7.109l14.371,0c3.923,0 7.109,3.185 7.109,7.109Z" style="fill:#d07400;"/><path d="M231.706,33.84l0,114.903c0,7.927 -6.436,14.363 -14.363,14.363l-202.981,0c-7.927,0 -14.363,-6.436 -14.363,-14.363l0,-114.903c0,-7.927 6.436,-14.363 14.363,-14.363l202.981,0c7.927,0 14.363,6.436 14.363,14.363Z" style="fill:#509ccf;"/><path d="M213.067,33.84l0,114.903c0,7.927 -6.436,14.363 -14.363,14.363l-184.342,0c-7.927,0 -14.363,-6.436 -14.363,-14.363l0,-114.903c0,-7.927 6.436,-14.363 14.363,-14.363l184.342,0c7.927,0 14.363,6.436 14.363,14.363Z" style="fill:#2d2d2d;"/><path d="M209.778,33.84l0,114.903c0,7.927 -6.436,14.363 -14.363,14.363l-181.052,0c-7.927,0 -14.363,-6.436 -14.363,-14.363l0,-114.903c0,-7.927 6.436,-14.363 14.363,-14.363l181.052,0c7.927,0 14.363,6.436 14.363,14.363Z" style="fill:#509ccf;"/><path d="M189.677,33.84l0,114.903c0,7.927 -6.436,14.363 -14.363,14.363l-160.952,0c-7.927,0 -14.363,-6.436 -14.363,-14.363l0,-114.903c0,-7.927 6.436,-14.363 14.363,-14.363l160.952,0c7.927,0 14.363,6.436 14.363,14.363Z" style="fill:#71c6ff;"/><rect x="38.726" y="19.477" width="22.454" height="143.629" style="fill:#a46644;"/><rect x="129.713" y="19.477" width="22.454" height="143.629" style="fill:#a46644;"/></svg>